<svg width="73" height="73" viewBox="0 0 73 73" fill="none" xmlns="http://www.w3.org/2000/svg">
    <circle cx="36.5" cy="36.5" r="36.5" fill="#D9D9D9"/>
    <path d="M65.5025 25.8624C66.3295 25.8624 67 26.5646 67 27.431C67 28.2973 66.3295 28.9996 65.5025 28.9996C64.6754 28.9996 64.0049 28.2973 64.005 27.431C64.005 26.5646 64.6754 25.8624 65.5025 25.8624Z" fill="black"/>
    <path d="M19.5339 52.4104C15.9651 50.9412 13.314 48.4325 11.5244 43.9333C9.353 38.4743 9.6357 33.3659 11.5243 27.431C13.4129 21.4961 17.3419 17.6483 19.6993 16.8241C22.0567 16 22.8425 16 24.807 16M23.5173 59.2272C23.5173 60.4037 29.133 60.4037 33.6255 58.0508C38.1181 55.6979 39.9899 54.1292 41.8618 52.5606C43.7337 50.992 46.7288 47.4626 47.8391 45.894C48.9495 44.3254 50.8469 41.9725 51.9701 39.1955C53.0932 36.4186 53.8419 34.1294 54.2163 30.9922C54.3973 29.4757 54.9651 27.0388 54.5907 23.5412C54.2163 20.0437 52.5876 17.672 50.8469 17.2668C47.4775 16.4825 46.0979 21.0234 47.5954 23.7685C48.2061 24.8882 49.3494 27.0706 52.3445 27.8549C55.3395 28.6392 57.573 28.6074 57.573 28.6074M23.5173 59.2272C23.5173 58.6332 29.5924 56.3528 32.6651 51.3523C35.6775 46.4498 36.2236 42.7762 36.4089 39.1955C36.5941 35.6149 36.17 30.3001 35.4845 27.0388C34.7991 23.7774 32.8431 18.8767 29.4946 17.2349C27.8329 16.4201 26.7715 16 24.807 16M23.5173 59.2272C25.9124 57.3661 28.2556 56.7246 30.8752 52.1685C33.4948 47.6123 34.0452 43.5916 34.5339 40.0117C35.0225 36.4318 34.6296 32.3469 33.8438 27.8534C33.058 23.36 31.2093 16.6471 24.807 16M65.5025 25.8624C66.3295 25.8624 67 26.5646 67 27.431C67 28.2973 66.3295 28.9996 65.5025 28.9996C64.6754 28.9996 64.0049 28.2973 64.005 27.431C64.005 26.5646 64.6754 25.8624 65.5025 25.8624Z" stroke="black" stroke-width="3" stroke-linecap="round" stroke-linejoin="round"/>
    </svg>
    