<svg width="168" height="69" viewBox="0 0 168 69" fill="none" xmlns="http://www.w3.org/2000/svg">
    <path d="M7.92863 8.88145C7.25762 7.53754 7.92863 5.52217 8.59964 5.52217C9.27065 5.52217 9.94166 6.19396 10.6127 7.53756C11.2837 8.88116 10.6127 10.2247 9.94166 10.2247C9.27065 10.2247 8.59964 10.2253 7.92863 8.88145Z" fill="#AAAAAA"/>
    <path d="M4.43151 8.88145C3.09631 9.05287 3.69735 11.3856 3.7605 11.5686C3.82364 11.7517 4.49138 13.4995 5.77353 12.9123C7.05568 12.325 6.44971 10.9806 6.44455 10.8968C6.43938 10.8131 5.76671 8.71002 4.43151 8.88145Z" fill="#AAAAAA"/>
    <path d="M1.69573 13.584C2.31188 13.3973 3.2393 14.2909 3.40581 15.97C3.37177 16.2635 3.36138 17.0627 2.36741 17.1386C1.37345 17.2146 1.09758 16.1369 1.0253 15.5991C0.932949 14.912 1.07958 13.7707 1.69573 13.584Z" fill="#AAAAAA"/>
    <path d="M12.5823 6.62342C12.5439 8.2403 13.2301 9.34675 14.5953 9.3106C15.9605 9.27445 16.1878 7.52326 15.9374 5.95165C15.6869 4.38003 14.8947 3.14047 13.9243 3.26445C12.7991 3.60845 12.612 5.37143 12.5823 6.62342Z" fill="#AAAAAA"/>
    <path d="M17.9938 5.70934C18.068 7.82319 18.2173 9.6213 20.6779 10.4119C23.1384 11.2025 24.9886 8.1962 24.7039 5.70934C24.4934 3.87044 22.7325 1.16563 21.3489 1.00675C19.9653 0.847881 17.9172 3.52336 17.9938 5.70934Z" fill="#AAAAAA"/>
    <path d="M20.0065 51.8765C21.9217 51.7483 23.2999 51.2375 24.0324 49.8611C24.9605 48.1727 24.7035 45.1586 24.7035 45.1586C24.7035 45.1586 24.7034 41.7996 23.3615 39.7842C22.0195 37.7688 21.4887 36.775 20.6775 34.4098C20.1707 32.2701 20.7759 30.9776 21.3485 28.3636L21.3511 28.3576C22.6196 25.5101 23.0644 24.5115 23.3614 20.9738C23.7299 16.8935 22.3546 13.9686 20.6774 12.9122C19.0001 11.8559 17.9106 11.6422 15.9808 11.5683C13.134 11.4656 11.6503 11.7214 9.27019 12.9122C7.60006 14.1372 6.68093 15.0337 5.24412 16.943C4.44261 18.2935 4.11362 19.1478 3.90218 20.9738C3.58202 24.3021 4.49859 26.5007 5.24437 27.6918C7.41558 30.5529 7.90797 31.8053 9.27027 34.4098L11.2833 39.7842C12.0329 41.9557 11.7995 43.1439 12.6253 45.1586C13.3928 46.8923 13.6548 47.8024 15.3094 49.8611C16.9252 51.5968 18.0597 51.8372 20.0065 51.8765Z" fill="#AAAAAA"/>
    <path d="M32.0846 68C30.1693 67.8718 28.7911 67.3609 28.0586 65.9846C27.1305 64.2962 27.3875 61.282 27.3875 61.282C27.3875 61.282 27.3876 57.923 28.7295 55.9076C30.0715 53.8923 30.6023 52.8984 31.4136 50.5333C31.9203 48.3936 31.3151 47.1011 30.7425 44.487L30.7399 44.4811C29.4714 41.6336 29.0266 40.635 28.7296 37.0973C28.3612 33.017 29.7364 30.0921 31.4136 29.0357C33.0909 27.9794 34.1804 27.7657 36.1103 27.6918C38.957 27.5891 40.4407 27.8449 42.8208 29.0357C44.491 30.2606 45.4101 31.1572 46.8469 33.0665C47.6484 34.417 47.9774 35.2712 48.1889 37.0973C48.509 40.4256 47.5924 42.6241 46.8467 43.8152C44.6755 46.6764 44.1831 47.9287 42.8208 50.5333L40.8077 55.9076C40.0581 58.0791 40.2915 59.2673 39.4657 61.282C38.6982 63.0157 38.4362 63.9258 36.7816 65.9846C35.1658 67.7202 34.0313 67.9607 32.0846 68Z" fill="#AAAAAA"/>
    <path d="M33.4266 22.3171C33.3524 24.4309 33.2031 26.229 30.7425 27.0197C28.282 27.8103 26.4318 24.8039 26.7165 22.3171C26.927 20.4782 28.6879 17.7734 30.0715 17.6145C31.4551 17.4556 33.5033 20.1311 33.4266 22.3171Z" fill="#AAAAAA"/>
    <path d="M38.7947 22.9889C38.8331 24.6058 38.1468 25.7122 36.7816 25.6761C35.4164 25.6399 35.1892 23.8887 35.4396 22.3171C35.69 20.7455 36.4823 19.5059 37.4527 19.6299C38.5779 19.9739 38.7649 21.7369 38.7947 22.9889Z" fill="#AAAAAA"/>
    <path d="M43.4919 25.0046C44.1629 23.6606 43.4918 21.6453 42.8208 21.6453C42.1498 21.6453 41.4788 22.3171 40.8078 23.6607C40.1368 25.0043 40.8078 26.3479 41.4788 26.3478C42.1498 26.3478 42.8208 26.3485 43.4919 25.0046Z" fill="#AAAAAA"/>
    <path d="M46.8468 24.3325C48.182 24.5039 47.581 26.8366 47.5179 27.0197C47.4547 27.2027 46.787 28.9505 45.5048 28.3633C44.2227 27.776 44.8286 26.4316 44.8338 26.3479C44.839 26.2641 45.5116 24.161 46.8468 24.3325Z" fill="#AAAAAA"/>
    <path d="M49.5309 28.3636C48.9147 28.1769 47.9873 29.0705 47.8208 30.7496C47.8548 31.0431 47.8652 31.8422 48.8592 31.9182C49.8532 31.9941 50.129 30.9165 50.2013 30.3786C50.2937 29.6915 50.147 28.5503 49.5309 28.3636Z" fill="#AAAAAA"/>
    <path fill-rule="evenodd" clip-rule="evenodd" d="M73.7211 18.3083C77.4315 17.3865 79.5314 17.4687 83.2308 18.3083C86.3632 19.3607 87.7511 20.3232 89.9436 22.3171C92.5639 25.839 93.236 27.543 93.8593 30.3786C94.5471 34.0496 94.4836 36.1119 93.8593 39.7842C93.0147 43.3309 92.0956 45.068 89.9436 47.9C87.9835 50.3289 86.5182 51.2886 83.2308 52.3667C79.6255 53.1144 77.5566 53.1764 73.7211 52.3667C70.2884 51.4026 68.5824 50.4064 65.8896 47.9C63.6437 45.5266 62.7976 43.7373 61.9739 39.7842C61.6272 36.051 61.7457 33.9913 62.5333 30.3786C63.3664 27.2651 64.1031 25.7332 65.8896 23.3333C67.4617 21.5928 69.1277 19.6842 73.7211 18.3083ZM83.2308 24.3325C80.4264 22.6654 76.6293 22.7331 73.7211 24.3325C71.0879 25.7807 69.9824 27.8776 69.246 30.3786C68.1028 34.2608 68.2267 38.1092 68.6866 39.7842C69.1465 41.4592 70.3648 45.1083 73.7211 46.225C77.0775 47.3417 80.9933 46.7833 83.2308 45.6667C85.4684 44.55 86.4744 42.8162 87.1466 40.6417C87.8188 38.4671 88.6227 33.0013 87.706 30.3786C86.7892 27.756 86.0356 25.9997 83.2308 24.3325Z" fill="#484848" fill-opacity="0.8"/>
    <path d="M106.166 52.3667C106.725 52.3667 106.725 27.8 106.725 27.2417C106.725 26.6833 112.151 48.377 112.879 49.575C113.606 50.773 114.375 51.186 116.235 51.25C118.005 51.2354 118.931 50.9364 119.591 49.575C120.252 48.2136 125.745 27.2417 125.745 27.8C125.745 28.3583 125.745 52.3667 126.304 52.3667H129.66C131.883 52.2982 132.425 51.6286 132.457 49.575C132.457 49.575 133.017 18.3083 132.457 18.3083H122.948C122.336 18.3509 122.129 18.5842 121.829 19.425C121.829 19.425 117.354 40.6417 116.235 40.6417C114.984 40.6417 109.522 19.425 109.522 19.425C109.196 18.5362 108.931 18.3298 108.404 18.3083H100.013C99.4532 18.3083 100.013 49.0167 100.013 49.0167C99.9593 50.7622 101.441 52.3467 102.81 52.3667C104.178 52.3866 105.607 52.3667 106.166 52.3667Z" fill="#484848" fill-opacity="0.8"/>
    <path d="M139.73 52.3667C139.17 52.3667 139.17 18.3083 139.73 18.3083H145.883C146.442 18.3083 145.323 40.0833 145.883 40.6417C146.442 41.2 159.308 18.3083 159.868 18.3083H166.58C167.14 18.3083 167.14 52.3667 166.58 52.3667H159.868C159.308 52.3667 160.427 31.7083 159.868 31.15C159.308 30.5917 147.002 52.3667 146.442 52.3667H139.73Z" fill="#484848" fill-opacity="0.8"/>
    <path d="M21.3485 28.3636C20.7759 30.9776 20.1707 32.2701 20.6775 34.4098C21.4887 36.775 22.0195 37.7688 23.3615 39.7842C24.7034 41.7996 24.7035 45.1586 24.7035 45.1586C24.7035 45.1586 24.9605 48.1727 24.0324 49.8611C23.2999 51.2375 21.9217 51.7483 20.0065 51.8765C18.0597 51.8372 16.9252 51.5968 15.3094 49.8611C13.6548 47.8024 13.3928 46.8923 12.6253 45.1586C11.7995 43.1439 12.0329 41.9557 11.2833 39.7842L9.27027 34.4098C7.90797 31.8053 7.41558 30.5529 5.24437 27.6918C4.49859 26.5007 3.58202 24.3021 3.90218 20.9738C4.11362 19.1478 4.44261 18.2935 5.24412 16.943C6.68093 15.0337 7.60006 14.1372 9.27019 12.9122C11.6503 11.7214 13.134 11.4656 15.9808 11.5683C17.9106 11.6422 19.0001 11.8559 20.6774 12.9122C22.3546 13.9686 23.7299 16.8935 23.3614 20.9738M21.3485 28.3636C22.619 25.5115 23.0642 24.514 23.3614 20.9738M21.3485 28.3636L21.3511 28.3576C22.6196 25.5101 23.0644 24.5115 23.3614 20.9738M126.304 52.3667C125.745 52.3667 125.745 28.3583 125.745 27.8C125.745 27.2417 120.252 48.2136 119.591 49.575C118.931 50.9364 118.005 51.2354 116.235 51.25C114.375 51.186 113.606 50.773 112.879 49.575C112.151 48.377 106.725 26.6833 106.725 27.2417C106.725 27.8 106.725 52.3667 106.166 52.3667C105.607 52.3667 104.178 52.3866 102.81 52.3667C101.441 52.3467 99.9593 50.7622 100.013 49.0167C100.013 49.0167 99.4532 18.3083 100.013 18.3083M126.304 52.3667C126.864 52.3667 129.66 52.3667 129.66 52.3667M126.304 52.3667H129.66M129.66 52.3667C131.883 52.2982 132.425 51.6286 132.457 49.575C132.457 49.575 133.017 18.3083 132.457 18.3083M132.457 18.3083C131.898 18.3083 122.948 18.3083 122.948 18.3083M132.457 18.3083H122.948M100.013 18.3083C100.572 18.3083 108.404 18.3083 108.404 18.3083M100.013 18.3083H108.404M108.404 18.3083C108.931 18.3298 109.196 18.5362 109.522 19.425C109.522 19.425 114.984 40.6417 116.235 40.6417C117.354 40.6417 121.829 19.425 121.829 19.425C122.129 18.5842 122.336 18.3509 122.948 18.3083M139.73 52.3667C139.17 52.3667 139.17 18.3083 139.73 18.3083M139.73 52.3667C140.289 52.3667 145.883 52.3667 146.442 52.3667M139.73 52.3667H146.442M139.73 18.3083C140.289 18.3083 145.323 18.3083 145.883 18.3083M139.73 18.3083H145.883M145.883 18.3083C146.442 18.3083 145.323 40.0833 145.883 40.6417C146.442 41.2 159.308 18.3083 159.868 18.3083M159.868 18.3083C160.427 18.3083 166.021 18.3083 166.58 18.3083M159.868 18.3083H166.58M166.58 18.3083C167.14 18.3083 167.14 52.3667 166.58 52.3667M166.58 52.3667C166.021 52.3667 160.427 52.3667 159.868 52.3667M166.58 52.3667H159.868M159.868 52.3667C159.308 52.3667 160.427 31.7083 159.868 31.15C159.308 30.5917 147.002 52.3667 146.442 52.3667M1.69573 13.584C2.31188 13.3973 3.2393 14.2909 3.40581 15.97C3.37177 16.2635 3.36138 17.0627 2.36741 17.1386C1.37345 17.2146 1.09758 16.1369 1.0253 15.5991C0.932949 14.912 1.07958 13.7707 1.69573 13.584ZM4.43151 8.88145C3.09631 9.05287 3.69735 11.3856 3.7605 11.5686C3.82364 11.7517 4.49138 13.4995 5.77353 12.9123C7.05568 12.325 6.44971 10.9806 6.44455 10.8968C6.43938 10.8131 5.76671 8.71002 4.43151 8.88145ZM7.92863 8.88145C7.25762 7.53754 7.92863 5.52217 8.59964 5.52217C9.27065 5.52217 9.94166 6.19396 10.6127 7.53756C11.2837 8.88116 10.6127 10.2247 9.94166 10.2247C9.27065 10.2247 8.59964 10.2253 7.92863 8.88145ZM12.5823 6.62342C12.5439 8.2403 13.2301 9.34675 14.5953 9.3106C15.9605 9.27445 16.1878 7.52326 15.9374 5.95165C15.6869 4.38003 14.8947 3.14047 13.9243 3.26445C12.7991 3.60845 12.612 5.37143 12.5823 6.62342ZM17.9938 5.70934C18.068 7.82319 18.2173 9.6213 20.6779 10.4119C23.1384 11.2025 24.9886 8.1962 24.7039 5.70934C24.4934 3.87044 22.7325 1.16563 21.3489 1.00675C19.9653 0.847881 17.9172 3.52336 17.9938 5.70934ZM32.0846 68C30.1693 67.8718 28.7911 67.3609 28.0586 65.9846C27.1305 64.2962 27.3875 61.282 27.3875 61.282C27.3875 61.282 27.3876 57.923 28.7295 55.9076C30.0715 53.8923 30.6023 52.8984 31.4136 50.5333C31.9203 48.3936 31.3151 47.1011 30.7425 44.487L30.7399 44.4811C29.4714 41.6336 29.0266 40.635 28.7296 37.0973C28.3612 33.017 29.7364 30.0921 31.4136 29.0357C33.0909 27.9794 34.1804 27.7657 36.1103 27.6918C38.957 27.5891 40.4407 27.8449 42.8208 29.0357C44.491 30.2606 45.4101 31.1572 46.8469 33.0665C47.6484 34.417 47.9774 35.2712 48.1889 37.0973C48.509 40.4256 47.5924 42.6241 46.8467 43.8152C44.6755 46.6764 44.1831 47.9287 42.8208 50.5333L40.8077 55.9076C40.0581 58.0791 40.2915 59.2673 39.4657 61.282C38.6982 63.0157 38.4362 63.9258 36.7816 65.9846C35.1658 67.7202 34.0313 67.9607 32.0846 68ZM33.4266 22.3171C33.3524 24.4309 33.2031 26.229 30.7425 27.0197C28.282 27.8103 26.4318 24.8039 26.7165 22.3171C26.927 20.4782 28.6879 17.7734 30.0715 17.6145C31.4551 17.4556 33.5033 20.1311 33.4266 22.3171ZM38.7947 22.9889C38.8331 24.6058 38.1468 25.7122 36.7816 25.6761C35.4164 25.6399 35.1892 23.8887 35.4396 22.3171C35.69 20.7455 36.4823 19.5059 37.4527 19.6299C38.5779 19.9739 38.7649 21.7369 38.7947 22.9889ZM43.4919 25.0046C44.1629 23.6606 43.4918 21.6453 42.8208 21.6453C42.1498 21.6453 41.4788 22.3171 40.8078 23.6607C40.1368 25.0043 40.8078 26.3479 41.4788 26.3478C42.1498 26.3478 42.8208 26.3485 43.4919 25.0046ZM46.8468 24.3325C48.182 24.5039 47.581 26.8366 47.5179 27.0197C47.4547 27.2027 46.787 28.9505 45.5048 28.3633C44.2227 27.776 44.8286 26.4316 44.8338 26.3479C44.839 26.2641 45.5116 24.161 46.8468 24.3325ZM49.5309 28.3636C48.9147 28.1769 47.9873 29.0705 47.8208 30.7496C47.8548 31.0431 47.8652 31.8422 48.8592 31.9182C49.8532 31.9941 50.129 30.9165 50.2013 30.3786C50.2937 29.6915 50.147 28.5503 49.5309 28.3636ZM73.7211 18.3083C77.4315 17.3865 79.5314 17.4687 83.2308 18.3083C86.3632 19.3607 87.7511 20.3232 89.9436 22.3171C92.5639 25.839 93.236 27.543 93.8593 30.3786C94.5471 34.0496 94.4836 36.1119 93.8593 39.7842C93.0147 43.3309 92.0956 45.068 89.9436 47.9C87.9835 50.3289 86.5182 51.2886 83.2308 52.3667C79.6255 53.1144 77.5566 53.1764 73.7211 52.3667C70.2884 51.4026 68.5824 50.4064 65.8896 47.9C63.6437 45.5266 62.7976 43.7373 61.9739 39.7842C61.6272 36.051 61.7457 33.9913 62.5333 30.3786C63.3664 27.2651 64.1031 25.7332 65.8896 23.3333C67.4617 21.5928 69.1277 19.6842 73.7211 18.3083ZM73.7211 24.3325C76.6293 22.7331 80.4264 22.6654 83.2308 24.3325C86.0356 25.9997 86.7892 27.756 87.706 30.3786C88.6227 33.0013 87.8188 38.4671 87.1466 40.6417C86.4744 42.8162 85.4684 44.55 83.2308 45.6667C80.9933 46.7833 77.0775 47.3417 73.7211 46.225C70.3648 45.1083 69.1465 41.4592 68.6866 39.7842C68.2267 38.1092 68.1028 34.2608 69.246 30.3786C69.9824 27.8776 71.0879 25.7807 73.7211 24.3325Z" stroke="black"/>
    </svg>
    