<svg width="150" height="62" viewBox="0 0 150 62" fill="none" xmlns="http://www.w3.org/2000/svg">
    <path d="M7.19298 8.05801C6.59322 6.85452 7.19298 5.04971 7.79275 5.04971C8.39252 5.04971 8.99229 5.65131 9.59205 6.85453C10.1918 8.05775 9.59205 9.26097 8.99229 9.26096C8.39252 9.26094 7.79275 9.26151 7.19298 8.05801Z" fill="#AAAAAA"/>
    <path d="M4.06717 8.05801C2.87373 8.21153 3.41096 10.3005 3.4674 10.4645C3.52384 10.6284 4.12068 12.1936 5.2667 11.6677C6.41272 11.1418 5.87109 9.93784 5.86647 9.86284C5.86186 9.78785 5.2606 7.90449 4.06717 8.05801Z" fill="#AAAAAA"/>
    <path d="M1.62186 12.2693C2.1726 12.1021 3.00154 12.9023 3.15037 14.406C3.11994 14.6688 3.11066 15.3845 2.22223 15.4525C1.3338 15.5205 1.08722 14.5554 1.02261 14.0738C0.940068 13.4585 1.07113 12.4364 1.62186 12.2693Z" fill="#AAAAAA"/>
    <path d="M11.3526 6.0359C11.3182 7.48385 11.9316 8.47471 13.1519 8.44233C14.3721 8.40995 14.5752 6.84173 14.3514 5.43431C14.1276 4.0269 13.4194 2.91684 12.5521 3.02786C11.5463 3.33593 11.3791 4.91472 11.3526 6.0359Z" fill="#AAAAAA"/>
    <path d="M16.1895 5.21732C16.2558 7.11032 16.3893 8.72057 18.5886 9.42859C20.7879 10.1366 22.4417 7.44436 22.1872 5.21732C21.999 3.57054 20.425 1.14832 19.1883 1.00605C17.9517 0.863774 16.121 3.25972 16.1895 5.21732Z" fill="#AAAAAA"/>
    <path d="M17.9885 46.5611C19.7003 46.4463 20.9322 45.9888 21.587 44.7562C22.4165 43.2442 22.1868 40.545 22.1868 40.545C22.1868 40.545 22.1867 37.5369 20.9873 35.7321C19.7878 33.9273 19.3133 33.0373 18.5882 30.9192C18.1353 29.0031 18.6762 27.8457 19.188 25.5047L19.1904 25.4994C20.3241 22.9493 20.7217 22.0551 20.9872 18.887C21.3165 15.233 20.0873 12.6137 18.5881 11.6677C17.089 10.7217 16.1151 10.5304 14.3902 10.4642C11.8457 10.3722 10.5195 10.6012 8.3921 11.6677C6.8993 12.7646 6.07776 13.5675 4.7935 15.2773C4.07709 16.4867 3.78304 17.2517 3.59404 18.887C3.30787 21.8676 4.12713 23.8364 4.79373 24.9031C6.7344 27.4653 7.17452 28.5868 8.39218 30.9192L10.1915 35.7321C10.8615 37.6767 10.6529 38.7408 11.391 40.545C12.077 42.0976 12.3112 42.9126 13.7901 44.7562C15.2344 46.3105 16.2484 46.5259 17.9885 46.5611Z" fill="#AAAAAA"/>
    <path d="M28.7842 61C27.0723 60.8852 25.8404 60.4277 25.1857 59.1952C24.3561 57.6832 24.5858 54.9839 24.5858 54.9839C24.5858 54.9839 24.5859 51.9759 25.7854 50.171C26.9848 48.3662 27.4593 47.4762 28.1844 45.3581C28.6374 43.442 28.0964 42.2846 27.5846 39.9436L27.5823 39.9383C26.4485 37.3883 26.0509 36.494 25.7854 33.3259C25.4561 29.6719 26.6853 27.0526 28.1845 26.1066C29.6837 25.1606 30.6575 24.9693 32.3824 24.9031C34.9269 24.8111 36.2531 25.0402 38.3805 26.1066C39.8733 27.2035 40.6949 28.0065 41.9791 29.7163C42.6956 30.9257 42.9896 31.6907 43.1786 33.3259C43.4648 36.3065 42.6455 38.2754 41.9789 39.342C40.0382 41.9042 39.5981 43.0257 38.3805 45.3581L36.5812 50.171C35.9112 52.1157 36.1198 53.1797 35.3816 54.9839C34.6956 56.5365 34.4615 57.3515 32.9825 59.1952C31.5383 60.7495 30.5242 60.9648 28.7842 61Z" fill="#AAAAAA"/>
    <path d="M29.9837 20.0899C29.9174 21.9829 29.784 23.5932 27.5846 24.3012C25.3853 25.0092 23.7316 22.317 23.986 20.0899C24.1742 18.4431 25.7482 16.0209 26.9849 15.8787C28.2216 15.7364 30.0522 18.1323 29.9837 20.0899Z" fill="#AAAAAA"/>
    <path d="M34.7818 20.6915C34.8162 22.1395 34.2028 23.1303 32.9825 23.098C31.7623 23.0656 31.5592 21.4974 31.783 20.09C32.0068 18.6825 32.715 17.5725 33.5823 17.6835C34.5881 17.9916 34.7553 19.5704 34.7818 20.6915Z" fill="#AAAAAA"/>
    <path d="M38.9803 22.4966C39.5801 21.2931 38.9803 19.4883 38.3805 19.4883C37.7808 19.4883 37.181 20.0899 36.5812 21.2931C35.9815 22.4964 36.5812 23.6996 37.181 23.6996C37.7808 23.6995 38.3805 23.7001 38.9803 22.4966Z" fill="#AAAAAA"/>
    <path d="M41.9791 21.8947C43.1725 22.0483 42.6353 24.1373 42.5788 24.3012C42.5224 24.4651 41.9256 26.0303 40.7795 25.5044C39.6335 24.9785 40.1751 23.7746 40.1798 23.6996C40.1844 23.6246 40.7856 21.7412 41.9791 21.8947Z" fill="#AAAAAA"/>
    <path d="M44.3781 25.5047C43.8274 25.3375 42.9985 26.1377 42.8496 27.6414C42.8801 27.9042 42.8893 28.6199 43.7778 28.6879C44.6662 28.7559 44.9128 27.7909 44.9774 27.3092C45.0599 26.6939 44.9289 25.6719 44.3781 25.5047Z" fill="#AAAAAA"/>
    <path fill-rule="evenodd" clip-rule="evenodd" d="M66 16.5C69.3164 15.6745 71.1933 15.7481 74.5 16.5C77.2998 17.4424 78.5403 18.3044 80.5 20.09C82.8421 23.2439 83.4429 24.7698 84 27.3092C84.6148 30.5967 84.558 32.4435 84 35.7321C83.245 38.9082 82.4236 40.4639 80.5 43C78.7481 45.1751 77.4383 46.0345 74.5 47C71.2774 47.6696 69.4282 47.7252 66 47C62.9318 46.1367 61.4069 45.2446 59 43C56.9925 40.8746 56.2362 39.2722 55.5 35.7321C55.1901 32.389 55.296 30.5444 56 27.3092C56.7446 24.521 57.4032 23.1491 59 21C60.4052 19.4413 61.8943 17.7321 66 16.5ZM74.5 21.8947C71.9933 20.4018 68.5993 20.4625 66 21.8947C63.6464 23.1916 62.6583 25.0695 62 27.3092C60.9782 30.7858 61.0889 34.2321 61.5 35.7321C61.9111 37.2321 63 40.5 66 41.5C69 42.5 72.5 42 74.5 41C76.5 40 77.3992 38.4473 78 36.5C78.6008 34.5527 79.3194 29.6578 78.5 27.3092C77.6806 24.9606 77.0069 23.3878 74.5 21.8947Z" fill="#484848" fill-opacity="0.8"/>
    <path d="M95 47C95.5 47 95.5 25 95.5 24.5C95.5 24 100.35 43.4272 101 44.5C101.65 45.5728 102.338 45.9427 104 46C105.582 45.9869 106.41 45.7192 107 44.5C107.59 43.2808 112.5 24.5 112.5 25C112.5 25.5 112.5 47 113 47H116C117.987 46.9386 118.471 46.339 118.5 44.5C118.5 44.5 119 16.5 118.5 16.5H110C109.453 16.5381 109.268 16.747 109 17.5C109 17.5 105 36.5 104 36.5C102.882 36.5 98 17.5 98 17.5C97.7081 16.7041 97.4717 16.5192 97 16.5H89.5C89 16.5 89.5 44 89.5 44C89.4523 45.5632 90.777 46.9822 92 47C93.223 47.0178 94.5 47 95 47Z" fill="#484848" fill-opacity="0.8"/>
    <path d="M125 47C124.5 47 124.5 16.5 125 16.5H130.5C131 16.5 130 36 130.5 36.5C131 37 142.5 16.5 143 16.5H149C149.5 16.5 149.5 47 149 47H143C142.5 47 143.5 28.5 143 28C142.5 27.5 131.5 47 131 47H125Z" fill="#484848" fill-opacity="0.8"/>
    <path d="M19.188 25.5047C18.6762 27.8457 18.1353 29.0031 18.5882 30.9192C19.3133 33.0373 19.7878 33.9273 20.9873 35.7321C22.1867 37.5369 22.1868 40.545 22.1868 40.545C22.1868 40.545 22.4165 43.2442 21.587 44.7562C20.9322 45.9888 19.7003 46.4463 17.9885 46.5611C16.2484 46.5259 15.2344 46.3105 13.7901 44.7562C12.3112 42.9126 12.077 42.0976 11.391 40.545C10.6529 38.7408 10.8615 37.6767 10.1915 35.7321L8.39218 30.9192C7.17452 28.5868 6.7344 27.4653 4.79373 24.9031C4.12713 23.8364 3.30787 21.8676 3.59404 18.887C3.78304 17.2517 4.07709 16.4867 4.7935 15.2773C6.07776 13.5675 6.8993 12.7646 8.3921 11.6677C10.5195 10.6012 11.8457 10.3722 14.3902 10.4642C16.1151 10.5304 17.089 10.7217 18.5881 11.6677C20.0873 12.6137 21.3165 15.233 20.9872 18.887M19.188 25.5047C20.3236 22.9506 20.7215 22.0573 20.9872 18.887M19.188 25.5047L19.1904 25.4994C20.3241 22.9493 20.7217 22.0551 20.9872 18.887M113 47C112.5 47 112.5 25.5 112.5 25C112.5 24.5 107.59 43.2808 107 44.5C106.41 45.7192 105.582 45.9869 104 46C102.338 45.9427 101.65 45.5728 101 44.5C100.35 43.4272 95.5 24 95.5 24.5C95.5 25 95.5 47 95 47C94.5 47 93.223 47.0178 92 47C90.777 46.9822 89.4523 45.5632 89.5 44C89.5 44 89 16.5 89.5 16.5M113 47C113.5 47 116 47 116 47M113 47H116M116 47C117.987 46.9387 118.471 46.339 118.5 44.5C118.5 44.5 119 16.5 118.5 16.5M118.5 16.5C118 16.5 110 16.5 110 16.5M118.5 16.5H110M89.5 16.5C90 16.5 97 16.5 97 16.5M89.5 16.5H97M97 16.5C97.4717 16.5192 97.7081 16.7041 98 17.5C98 17.5 102.882 36.5 104 36.5C105 36.5 109 17.5 109 17.5C109.268 16.747 109.453 16.5381 110 16.5M125 47C124.5 47 124.5 16.5 125 16.5M125 47C125.5 47 130.5 47 131 47M125 47H131M125 16.5C125.5 16.5 130 16.5 130.5 16.5M125 16.5H130.5M130.5 16.5C131 16.5 130 36 130.5 36.5C131 37 142.5 16.5 143 16.5M143 16.5C143.5 16.5 148.5 16.5 149 16.5M143 16.5H149M149 16.5C149.5 16.5 149.5 47 149 47M149 47C148.5 47 143.5 47 143 47M149 47H143M143 47C142.5 47 143.5 28.5 143 28C142.5 27.5 131.5 47 131 47M1.62186 12.2693C2.1726 12.1021 3.00154 12.9023 3.15037 14.406C3.11994 14.6688 3.11066 15.3845 2.22223 15.4525C1.3338 15.5205 1.08722 14.5554 1.02261 14.0738C0.940068 13.4585 1.07113 12.4364 1.62186 12.2693ZM4.06717 8.05801C2.87373 8.21153 3.41096 10.3005 3.4674 10.4645C3.52384 10.6284 4.12068 12.1936 5.2667 11.6677C6.41272 11.1418 5.87109 9.93784 5.86647 9.86284C5.86185 9.78785 5.2606 7.90449 4.06717 8.05801ZM7.19298 8.05801C6.59322 6.85452 7.19298 5.04971 7.79275 5.04971C8.39252 5.04971 8.99229 5.65131 9.59205 6.85453C10.1918 8.05775 9.59205 9.26097 8.99229 9.26096C8.39252 9.26094 7.79275 9.26151 7.19298 8.05801ZM11.3526 6.0359C11.3182 7.48385 11.9316 8.47471 13.1519 8.44233C14.3721 8.40995 14.5752 6.84173 14.3514 5.43431C14.1276 4.0269 13.4194 2.91684 12.5521 3.02786C11.5463 3.33593 11.3791 4.91472 11.3526 6.0359ZM16.1895 5.21732C16.2558 7.11032 16.3893 8.72057 18.5886 9.42859C20.7879 10.1366 22.4417 7.44435 22.1872 5.21732C21.999 3.57054 20.425 1.14832 19.1883 1.00605C17.9517 0.863774 16.121 3.25972 16.1895 5.21732ZM28.7842 61C27.0723 60.8852 25.8404 60.4277 25.1857 59.1952C24.3561 57.6832 24.5858 54.9839 24.5858 54.9839C24.5858 54.9839 24.5859 51.9759 25.7854 50.171C26.9848 48.3662 27.4593 47.4762 28.1844 45.3581C28.6374 43.442 28.0964 42.2846 27.5846 39.9436L27.5823 39.9383C26.4485 37.3883 26.0509 36.494 25.7854 33.3259C25.4561 29.6719 26.6853 27.0526 28.1845 26.1066C29.6837 25.1606 30.6575 24.9693 32.3824 24.9031C34.9269 24.8111 36.2531 25.0402 38.3805 26.1066C39.8733 27.2035 40.6949 28.0065 41.9791 29.7163C42.6956 30.9257 42.9896 31.6907 43.1786 33.3259C43.4648 36.3065 42.6455 38.2754 41.9789 39.342C40.0382 41.9042 39.5981 43.0257 38.3805 45.3581L36.5812 50.171C35.9112 52.1156 36.1198 53.1797 35.3816 54.9839C34.6956 56.5365 34.4615 57.3515 32.9825 59.1952C31.5383 60.7495 30.5242 60.9648 28.7842 61ZM29.9837 20.0899C29.9174 21.9829 29.784 23.5932 27.5846 24.3012C25.3853 25.0092 23.7316 22.317 23.986 20.0899C24.1742 18.4431 25.7482 16.0209 26.9849 15.8787C28.2216 15.7364 30.0522 18.1323 29.9837 20.0899ZM34.7818 20.6915C34.8162 22.1395 34.2028 23.1303 32.9825 23.098C31.7623 23.0656 31.5592 21.4974 31.783 20.09C32.0068 18.6825 32.715 17.5725 33.5823 17.6835C34.5881 17.9916 34.7553 19.5704 34.7818 20.6915ZM38.9803 22.4966C39.5801 21.2931 38.9803 19.4883 38.3805 19.4883C37.7808 19.4883 37.181 20.0899 36.5812 21.2931C35.9815 22.4964 36.5812 23.6996 37.181 23.6996C37.7808 23.6995 38.3805 23.7001 38.9803 22.4966ZM41.9791 21.8947C43.1725 22.0483 42.6353 24.1373 42.5788 24.3012C42.5224 24.4651 41.9256 26.0303 40.7795 25.5044C39.6335 24.9785 40.1751 23.7746 40.1798 23.6996C40.1844 23.6246 40.7856 21.7412 41.9791 21.8947ZM44.3781 25.5047C43.8274 25.3375 42.9985 26.1377 42.8496 27.6414C42.8801 27.9042 42.8893 28.6199 43.7778 28.6879C44.6662 28.7559 44.9128 27.7909 44.9774 27.3092C45.0599 26.6939 44.9289 25.6719 44.3781 25.5047ZM66 16.5C69.3164 15.6745 71.1933 15.7481 74.5 16.5C77.2998 17.4424 78.5403 18.3044 80.5 20.09C82.8421 23.2439 83.4429 24.7698 84 27.3092C84.6148 30.5967 84.558 32.4435 84 35.7321C83.245 38.9082 82.4236 40.4639 80.5 43C78.7481 45.1751 77.4383 46.0345 74.5 47C71.2774 47.6696 69.4282 47.7252 66 47C62.9318 46.1367 61.4069 45.2446 59 43C56.9925 40.8746 56.2362 39.2722 55.5 35.7321C55.1901 32.389 55.296 30.5444 56 27.3092C56.7446 24.521 57.4032 23.1491 59 21C60.4052 19.4413 61.8943 17.7321 66 16.5ZM66 21.8947C68.5994 20.4625 71.9933 20.4018 74.5 21.8947C77.0069 23.3878 77.6806 24.9606 78.5 27.3092C79.3194 29.6578 78.6008 34.5527 78 36.5C77.3992 38.4473 76.5 40 74.5 41C72.5 42 69 42.5 66 41.5C63 40.5 61.9111 37.2321 61.5 35.7321C61.0889 34.2321 60.9782 30.7858 62 27.3092C62.6583 25.0695 63.6464 23.1916 66 21.8947Z" stroke="black"/>
    </svg>
    