<svg width="31" height="31" viewBox="0 0 31 31" fill="none" xmlns="http://www.w3.org/2000/svg">
    <path d="M15.5016 0.00105992C6.94035 0.00105992 0 7.11703 0 15.8949C0 22.8741 4.38811 28.8041 10.4901 30.9397L10.5997 30.9726C11.375 31.122 11.6592 30.6313 11.6592 30.2084C11.6592 29.8311 11.6468 28.8306 11.6396 27.5068C7.32799 28.466 6.41832 25.3744 6.41832 25.3744C6.12061 24.394 5.51072 23.5885 4.70959 23.0596L4.69305 23.0501C3.28927 22.0644 4.80159 22.0845 4.80159 22.0845C5.82187 22.2318 6.67675 22.8455 7.16776 23.7061L7.17603 23.722C7.74871 24.7766 8.82997 25.4782 10.0715 25.4782C10.6669 25.4782 11.2251 25.3171 11.7068 25.0341L11.6903 25.0426C11.7647 24.2043 12.1254 23.4645 12.6712 22.9176L12.6723 22.9165C9.23002 22.5191 5.61099 21.1518 5.61099 15.0629C5.61099 15.0343 5.60996 15.0014 5.60996 14.9685C5.60996 13.3565 6.21675 11.8896 7.20911 10.7948L7.20601 10.799C6.99617 10.2246 6.87419 9.56109 6.87419 8.86899C6.87419 8.04547 7.04578 7.26223 7.35486 6.55636L7.34039 6.59239C7.34039 6.59239 8.63873 6.16632 11.6034 8.22141C12.7653 7.88119 14.0998 7.68512 15.4788 7.68512C16.8578 7.68512 18.1923 7.88119 19.4576 8.24685L19.3542 8.22141C22.2992 6.16632 23.5976 6.59239 23.5976 6.59239C23.8922 7.27283 24.0638 8.06561 24.0638 8.89973C24.0638 9.58017 23.9501 10.233 23.7402 10.8393L23.7526 10.799C24.7378 11.8928 25.3425 13.3597 25.3425 14.9717C25.3425 15.0046 25.3425 15.0364 25.3415 15.0682V15.0629C25.3415 21.1688 21.7183 22.5127 18.2688 22.9038C18.9221 23.5895 19.3253 24.5275 19.3253 25.563C19.3253 25.6616 19.3211 25.7601 19.3139 25.8577L19.3149 25.8449C19.3149 27.9721 19.2953 29.6806 19.2953 30.1968C19.2953 30.6143 19.5661 31.1104 20.361 30.9514C26.5923 28.8009 31 22.8656 31 15.8737C31 7.10643 24.0679 0 15.5181 0C15.5119 0 15.5047 0 15.4984 0H15.4995L15.5016 0.00105992Z" fill="black"/>
    </svg>
    