<svg width="31" height="29" viewBox="0 0 31 29" fill="none" xmlns="http://www.w3.org/2000/svg">
    <path d="M15.5016 0.000474762C6.94035 0.000474762 0 6.46604 0 14.4416C0 20.7829 4.38811 26.1709 10.4901 28.1113L10.5997 28.1412C11.375 28.277 11.6592 27.8311 11.6592 27.4469C11.6592 27.104 11.6468 26.195 11.6396 24.9922C7.32799 25.8637 6.41832 23.0546 6.41832 23.0546C6.12061 22.1639 5.51072 21.432 4.70959 20.9515L4.69305 20.9428C3.28927 20.0472 4.80159 20.0655 4.80159 20.0655C5.82187 20.1994 6.67675 20.7569 7.16776 21.5389L7.17603 21.5533C7.74871 22.5115 8.82997 23.149 10.0715 23.149C10.6669 23.149 11.2251 23.0026 11.7068 22.7455L11.6903 22.7532C11.7647 21.9915 12.1254 21.3193 12.6712 20.8224L12.6723 20.8215C9.23002 20.4603 5.61099 19.2181 5.61099 13.6856C5.61099 13.6596 5.60996 13.6298 5.60996 13.5999C5.60996 12.1352 6.21675 10.8024 7.20911 9.80765L7.20601 9.8115C6.99617 9.28955 6.87419 8.68672 6.87419 8.05788C6.87419 7.30963 7.04578 6.59797 7.35486 5.95662L7.34039 5.98936C7.34039 5.98936 8.63873 5.60223 11.6034 7.46949C12.7653 7.16036 14.0998 6.98221 15.4788 6.98221C16.8578 6.98221 18.1923 7.16036 19.4576 7.4926L19.3542 7.46949C22.2992 5.60223 23.5976 5.98936 23.5976 5.98936C23.8922 6.6076 24.0638 7.32793 24.0638 8.08581C24.0638 8.70405 23.9501 9.29726 23.7402 9.84809L23.7526 9.8115C24.7378 10.8053 25.3425 12.1381 25.3425 13.6028C25.3425 13.6327 25.3425 13.6616 25.3415 13.6905V13.6856C25.3415 19.2335 21.7183 20.4545 18.2688 20.8099C18.9221 21.433 19.3253 22.2852 19.3253 23.2261C19.3253 23.3156 19.3211 23.4052 19.3139 23.4938L19.3149 23.4822C19.3149 25.415 19.2953 26.9673 19.2953 27.4363C19.2953 27.8157 19.5661 28.2664 20.361 28.1219C26.5923 26.168 31 20.7752 31 14.4223C31 6.45641 24.0679 -0.000488281 15.5181 -0.000488281C15.5119 -0.000488281 15.5047 -0.000488281 15.4985 -0.000488281H15.4995L15.5016 0.000474762Z" fill="black"/>
    </svg>
    