<svg width="19" height="25" viewBox="0 0 19 25" fill="none" xmlns="http://www.w3.org/2000/svg">
    <path d="M8.51855 11.5C9.25572 11.7395 9.69525 11.7333 10.5186 11.5C11.2549 11.1133 11.5925 10.7988 12.0186 10C12.2742 9.18309 12.2708 8.75216 12.0186 8C11.6013 7.25485 11.2746 6.90916 10.5186 6.5C9.67568 6.31832 9.23894 6.31308 8.51855 6.5C7.69405 6.96773 7.38283 7.30062 7.01855 8C6.7784 8.76559 6.75298 9.20431 7.01855 10C7.43788 10.8377 7.76649 11.1621 8.51855 11.5Z" fill="white"/>
    <path fill-rule="evenodd" clip-rule="evenodd" d="M9.51858 24C5.67006 20.1415 2.51862 14 2.51862 14C2.54349 14.0997 0.801056 10.7306 1.01884 7.99998C1.17174 6.08297 1.67651 4.87716 3.01879 3.49998C4.8725 1.59806 6.86273 1 9.51858 1C12.1744 1 14.1651 1.59808 16.0188 3.49998C17.3611 4.87715 17.8494 6.08434 18.0188 7.99998C18.2283 10.3699 16.4661 14.0743 16.5186 14C16.5186 14 13.2541 20.0891 9.51858 24ZM10.5186 11.5C9.69525 11.7333 9.25572 11.7395 8.51855 11.5C7.76649 11.1621 7.43788 10.8377 7.01855 10C6.75298 9.20431 6.7784 8.76559 7.01855 8C7.38283 7.30062 7.69405 6.96773 8.51855 6.5C9.23894 6.31308 9.67568 6.31832 10.5186 6.5C11.2746 6.90916 11.6013 7.25485 12.0186 8C12.2708 8.75216 12.2742 9.18309 12.0186 10C11.5925 10.7988 11.2549 11.1133 10.5186 11.5Z" fill="#FF0000"/>
    <path d="M8.51855 11.5C9.25572 11.7395 9.69525 11.7333 10.5186 11.5C11.2549 11.1133 11.5925 10.7988 12.0186 10C12.2742 9.18309 12.2708 8.75216 12.0186 8C11.6013 7.25485 11.2746 6.90916 10.5186 6.5C9.67568 6.31832 9.23894 6.31308 8.51855 6.5C7.69405 6.96773 7.38283 7.30062 7.01855 8C6.7784 8.76559 6.75298 9.20431 7.01855 10C7.43788 10.8377 7.76649 11.1621 8.51855 11.5Z" stroke="black" stroke-linejoin="round"/>
    <path fill-rule="evenodd" clip-rule="evenodd" d="M9.51858 24C5.67006 20.1415 2.51862 14 2.51862 14C2.54349 14.0997 0.801056 10.7306 1.01884 7.99998C1.17174 6.08297 1.67651 4.87716 3.01879 3.49998C4.8725 1.59806 6.86273 1 9.51858 1C12.1744 1 14.1651 1.59808 16.0188 3.49998C17.3611 4.87715 17.8494 6.08434 18.0188 7.99998C18.2283 10.3699 16.4661 14.0743 16.5186 14C16.5186 14 13.2541 20.0891 9.51858 24ZM10.5186 11.5C9.69525 11.7333 9.25572 11.7395 8.51855 11.5C7.76649 11.1621 7.43788 10.8377 7.01855 10C6.75298 9.20431 6.7784 8.76559 7.01855 8C7.38283 7.30062 7.69405 6.96773 8.51855 6.5C9.23894 6.31308 9.67568 6.31832 10.5186 6.5C11.2746 6.90916 11.6013 7.25485 12.0186 8C12.2708 8.75216 12.2742 9.18309 12.0186 10C11.5925 10.7988 11.2549 11.1133 10.5186 11.5Z" stroke="black" stroke-linejoin="round"/>
    </svg>
    