<svg width="19" height="19" viewBox="0 0 19 19" fill="none" xmlns="http://www.w3.org/2000/svg">
<path d="M10.7143 16.2105H6.76786L8.28571 18H12.2321V12.0351L10.7143 10.5439V16.2105Z" fill="#D9D9D9"/>
<path d="M16.7857 10.5439H10.7143L12.2321 12.0351H18L16.7857 10.5439Z" fill="#D9D9D9"/>
<path d="M6.76786 10.5439H1L3.125 12.0351H6.76786V10.5439Z" fill="#D9D9D9"/>
<path d="M10.7143 1V6.66667H12.2321V2.49123L10.7143 1Z" fill="#D9D9D9"/>
<path d="M16.7857 6.66667V10.5439L18 12.0351V8.15789L16.7857 6.66667Z" fill="#D9D9D9"/>
<path d="M1 6.66667V10.5439H6.76786V12.0351V16.2105H10.7143V10.5439H16.7857V6.66667H12.2321H10.7143V1H6.76786V6.66667H1Z" fill="white"/>
<path d="M1 10.5439V6.66667H6.76786V1H10.7143M1 10.5439H6.76786V12.0351M1 10.5439L3.125 12.0351H6.76786M6.76786 16.2105H10.7143M6.76786 16.2105V12.0351M6.76786 16.2105L8.28571 18H12.2321M10.7143 16.2105V10.5439M10.7143 16.2105L12.2321 18M10.7143 10.5439H16.7857M10.7143 10.5439L12.2321 12.0351M16.7857 10.5439V6.66667M16.7857 10.5439L18 12.0351M16.7857 6.66667L18 8.15789V12.0351M16.7857 6.66667H12.2321M10.7143 1V6.66667H12.2321M10.7143 1L12.2321 2.49123V6.66667M12.2321 18V12.0351M12.2321 12.0351H18" stroke="black"/>
</svg>
