<svg width="835" height="1138" viewBox="0 0 835 1138" fill="none" xmlns="http://www.w3.org/2000/svg">
    <path
        d="M118.244 134.632C106.89 111.846 118.244 77.6744 129.599 77.6744C140.954 77.6744 152.309 89.0647 163.663 111.846C175.018 134.627 163.663 157.408 152.309 157.407C140.954 157.407 129.599 157.418 118.244 134.632Z"
        fill="#AAAAAA" />
    <path
        d="M59.0671 134.632C36.4732 137.538 46.6439 177.09 47.7124 180.194C48.7809 183.297 60.0802 212.932 81.7764 202.975C103.473 193.018 93.2186 170.223 93.1312 168.803C93.0438 167.383 81.661 131.725 59.0671 134.632Z"
        fill="#AAAAAA" />
    <path
        d="M12.773 214.365C23.1994 211.2 38.8928 226.35 41.7104 254.82C41.1344 259.796 40.9586 273.346 24.139 274.634C7.31938 275.922 2.65126 257.649 1.4281 248.531C-0.134613 236.88 2.34665 217.53 12.773 214.365Z"
        fill="#AAAAAA" />
    <path
        d="M196.993 96.3463C196.343 123.761 207.955 142.521 231.057 141.908C254.158 141.295 258.004 111.603 253.766 84.9563C249.528 58.3093 236.122 37.2922 219.702 39.3942C200.661 45.2269 197.496 75.1186 196.993 96.3463Z"
        fill="#AAAAAA" />
    <path
        d="M288.565 80.8479C289.82 116.689 292.347 147.176 333.984 160.581C375.621 173.986 406.93 123.013 402.112 80.8479C398.549 49.6689 368.751 3.80824 345.339 1.11452C321.926 -1.57921 287.268 43.7841 288.565 80.8479Z"
        fill="#AAAAAA" />
    <path
        d="M322.622 863.623C355.031 861.449 378.353 852.788 390.748 829.451C406.454 800.824 402.105 749.718 402.105 749.718C402.105 749.718 402.103 692.766 379.395 658.594C356.687 624.423 347.705 607.572 333.977 567.47C325.402 531.191 335.643 509.278 345.332 464.956L345.376 464.855C366.841 416.574 374.368 399.643 379.394 339.661C385.629 270.478 362.358 220.885 333.975 202.975C305.593 185.064 287.157 181.441 254.501 180.188C206.329 178.447 181.222 182.784 140.946 202.975C112.685 223.743 97.1313 238.945 72.8179 271.317C59.2549 294.216 53.6879 308.7 50.1099 339.661C44.6923 396.093 60.2023 433.37 72.8221 453.565C109.563 502.076 117.895 523.31 140.947 567.47L175.011 658.594C187.696 695.413 183.746 715.559 197.721 749.718C210.708 779.114 215.141 794.544 243.14 829.452C270.483 858.879 289.68 862.957 322.622 863.623Z"
        fill="#AAAAAA" />
    <path
        d="M527.005 1137C494.596 1134.83 471.274 1126.16 458.879 1102.83C443.173 1074.2 447.522 1023.1 447.522 1023.1C447.522 1023.1 447.524 966.143 470.232 931.971C492.94 897.8 501.922 880.95 515.65 840.847C524.225 804.568 513.984 782.655 504.296 738.333L504.251 738.232C482.786 689.951 475.259 673.02 470.233 613.038C463.998 543.855 487.269 494.262 515.652 476.352C544.034 458.441 562.471 454.818 595.127 453.565C643.299 451.824 668.405 456.161 708.681 476.352C736.943 497.12 752.496 512.322 776.81 544.694C790.373 567.593 795.939 582.077 799.517 613.038C804.935 669.47 789.425 706.747 776.805 726.942C740.065 775.453 731.732 796.687 708.68 840.847L674.616 931.971C661.932 968.79 665.881 988.935 651.906 1023.1C638.919 1052.49 634.486 1067.92 606.488 1102.83C579.145 1132.26 559.948 1136.33 527.005 1137Z"
        fill="#AAAAAA" />
    <path
        d="M549.714 362.436C548.46 398.277 545.933 428.764 504.296 442.169C462.658 455.574 431.35 404.601 436.168 362.436C439.73 331.257 469.528 285.396 492.941 282.702C516.354 280.009 551.012 325.372 549.714 362.436Z"
        fill="#AAAAAA" />
    <path
        d="M640.552 373.826C641.201 401.241 629.589 420.001 606.488 419.388C583.386 418.775 579.541 389.083 583.778 362.436C588.016 335.789 601.422 314.772 617.842 316.874C636.884 322.707 640.049 352.599 640.552 373.826Z"
        fill="#AAAAAA" />
    <path
        d="M720.036 408.003C731.391 385.216 720.036 351.045 708.681 351.045C697.327 351.045 685.972 362.436 674.617 385.217C663.263 407.998 674.617 430.779 685.972 430.778C697.327 430.778 708.681 430.789 720.036 408.003Z"
        fill="#AAAAAA" />
    <path
        d="M776.808 396.607C799.402 399.514 789.232 439.065 788.163 442.169C787.095 445.273 775.795 474.907 754.099 464.95C732.403 454.994 742.657 432.198 742.744 430.779C742.832 429.359 754.214 393.701 776.808 396.607Z"
        fill="#AAAAAA" />
    <path
        d="M822.227 464.956C811.801 461.79 796.107 476.941 793.29 505.411C793.866 510.387 794.041 523.937 810.861 525.225C827.681 526.512 832.349 508.24 833.572 499.121C835.135 487.471 832.653 468.121 822.227 464.956Z"
        fill="#AAAAAA" />
    <path
        d="M345.332 464.956C335.643 509.278 325.402 531.191 333.977 567.47C347.705 607.572 356.687 624.423 379.395 658.594C402.103 692.766 402.105 749.718 402.105 749.718C402.105 749.718 406.454 800.824 390.748 829.451C378.353 852.788 355.031 861.449 322.622 863.623C289.68 862.957 270.483 858.879 243.14 829.452C215.141 794.544 210.708 779.114 197.721 749.718C183.746 715.559 187.696 695.413 175.011 658.594L140.947 567.47C117.895 523.31 109.563 502.076 72.8221 453.565C60.2023 433.37 44.6923 396.093 50.1099 339.661C53.6879 308.7 59.2549 294.216 72.8179 271.317C97.1313 238.945 112.685 223.743 140.946 202.975C181.222 182.784 206.329 178.447 254.501 180.188C287.157 181.441 305.593 185.064 333.975 202.975C362.358 220.885 385.629 270.478 379.394 339.661M345.332 464.956C366.83 416.597 374.364 399.685 379.394 339.661M345.332 464.956L345.376 464.855C366.841 416.574 374.368 399.643 379.394 339.661M12.773 214.365C23.1994 211.2 38.8928 226.35 41.7104 254.82C41.1344 259.796 40.9586 273.346 24.139 274.634C7.31938 275.922 2.65126 257.649 1.4281 248.531C-0.134613 236.88 2.34665 217.53 12.773 214.365ZM59.0671 134.632C36.4732 137.538 46.6439 177.09 47.7124 180.194C48.7809 183.297 60.0802 212.932 81.7764 202.975C103.473 193.018 93.2186 170.223 93.1312 168.803C93.0438 167.383 81.661 131.725 59.0671 134.632ZM118.244 134.632C106.89 111.846 118.244 77.6744 129.599 77.6744C140.954 77.6744 152.309 89.0647 163.663 111.846C175.018 134.627 163.663 157.408 152.309 157.407C140.954 157.407 129.599 157.418 118.244 134.632ZM196.993 96.3463C196.343 123.761 207.955 142.521 231.057 141.908C254.158 141.295 258.004 111.603 253.766 84.9563C249.528 58.3093 236.122 37.2922 219.702 39.3942C200.661 45.2269 197.496 75.1186 196.993 96.3463ZM288.565 80.8479C289.82 116.689 292.347 147.176 333.984 160.581C375.621 173.986 406.93 123.013 402.112 80.8479C398.549 49.6689 368.751 3.80824 345.339 1.11452C321.926 -1.57921 287.268 43.7841 288.565 80.8479ZM527.005 1137C494.596 1134.83 471.274 1126.16 458.879 1102.83C443.173 1074.2 447.522 1023.1 447.522 1023.1C447.522 1023.1 447.524 966.143 470.232 931.971C492.94 897.8 501.922 880.95 515.65 840.847C524.225 804.568 513.984 782.655 504.296 738.333L504.251 738.232C482.786 689.951 475.259 673.02 470.233 613.038C463.998 543.855 487.269 494.262 515.652 476.352C544.034 458.441 562.471 454.818 595.127 453.565C643.299 451.824 668.405 456.161 708.681 476.352C736.943 497.12 752.496 512.322 776.81 544.694C790.373 567.593 795.939 582.077 799.517 613.038C804.935 669.47 789.425 706.747 776.805 726.942C740.065 775.453 731.732 796.687 708.68 840.847L674.616 931.971C661.932 968.79 665.881 988.935 651.906 1023.1C638.919 1052.49 634.486 1067.92 606.488 1102.83C579.145 1132.26 559.948 1136.33 527.005 1137ZM549.714 362.436C548.46 398.277 545.933 428.764 504.296 442.169C462.658 455.574 431.35 404.601 436.168 362.436C439.73 331.257 469.528 285.396 492.941 282.702C516.354 280.009 551.012 325.372 549.714 362.436ZM640.552 373.826C641.201 401.241 629.589 420.001 606.488 419.388C583.386 418.775 579.541 389.083 583.778 362.436C588.016 335.789 601.422 314.772 617.842 316.874C636.884 322.707 640.049 352.599 640.552 373.826ZM720.036 408.003C731.391 385.216 720.036 351.045 708.681 351.045C697.327 351.045 685.972 362.436 674.617 385.217C663.263 407.998 674.617 430.779 685.972 430.778C697.327 430.778 708.681 430.789 720.036 408.003ZM776.808 396.607C799.402 399.514 789.232 439.065 788.163 442.169C787.095 445.273 775.795 474.907 754.099 464.95C732.403 454.994 742.657 432.198 742.744 430.779C742.832 429.359 754.214 393.701 776.808 396.607ZM822.227 464.956C811.801 461.79 796.107 476.941 793.29 505.411C793.866 510.387 794.041 523.937 810.861 525.225C827.681 526.512 832.349 508.24 833.572 499.121C835.135 487.471 832.653 468.121 822.227 464.956Z"
        stroke="black" />
</svg>
    